<mxfile host="app.diagrams.net" modified="2024-01-20T17:11:58.613Z" agent="Mozilla/5.0 (X11; Linux x86_64; rv:121.0) Gecko/20100101 Firefox/121.0" etag="DKST7TrkVVofZrEeWQ7F" version="22.1.18" type="device" pages="3">
  <diagram name="overview" id="hsU4lv-EQycWS0qrADkF">
    <mxGraphModel dx="1328" dy="590" grid="1" gridSize="10" guides="1" tooltips="1" connect="1" arrows="1" fold="1" page="1" pageScale="1" pageWidth="850" pageHeight="1100" math="0" shadow="0">
      <root>
        <mxCell id="0" />
        <mxCell id="1" parent="0" />
        <mxCell id="zlJZLhdvWkpfAHv41WlI-9" style="edgeStyle=orthogonalEdgeStyle;rounded=0;orthogonalLoop=1;jettySize=auto;html=1;" edge="1" parent="1" source="zlJZLhdvWkpfAHv41WlI-1" target="zlJZLhdvWkpfAHv41WlI-8">
          <mxGeometry relative="1" as="geometry" />
        </mxCell>
        <mxCell id="zlJZLhdvWkpfAHv41WlI-1" value="Load Balancer" style="triangle;whiteSpace=wrap;html=1;" vertex="1" parent="1">
          <mxGeometry x="270" y="200" width="100" height="90" as="geometry" />
        </mxCell>
        <mxCell id="zlJZLhdvWkpfAHv41WlI-20" style="edgeStyle=orthogonalEdgeStyle;rounded=0;orthogonalLoop=1;jettySize=auto;html=1;entryX=0;entryY=0.5;entryDx=0;entryDy=0;" edge="1" parent="1" source="zlJZLhdvWkpfAHv41WlI-2" target="zlJZLhdvWkpfAHv41WlI-1">
          <mxGeometry relative="1" as="geometry" />
        </mxCell>
        <mxCell id="zlJZLhdvWkpfAHv41WlI-2" value="Client" style="whiteSpace=wrap;html=1;aspect=fixed;" vertex="1" parent="1">
          <mxGeometry x="80" y="70" width="80" height="80" as="geometry" />
        </mxCell>
        <mxCell id="zlJZLhdvWkpfAHv41WlI-23" style="edgeStyle=orthogonalEdgeStyle;rounded=0;orthogonalLoop=1;jettySize=auto;html=1;entryX=0;entryY=0.5;entryDx=0;entryDy=0;" edge="1" parent="1" source="zlJZLhdvWkpfAHv41WlI-4" target="zlJZLhdvWkpfAHv41WlI-1">
          <mxGeometry relative="1" as="geometry" />
        </mxCell>
        <mxCell id="zlJZLhdvWkpfAHv41WlI-4" value="Client" style="whiteSpace=wrap;html=1;aspect=fixed;" vertex="1" parent="1">
          <mxGeometry x="80" y="460" width="80" height="80" as="geometry" />
        </mxCell>
        <mxCell id="zlJZLhdvWkpfAHv41WlI-22" style="edgeStyle=orthogonalEdgeStyle;rounded=0;orthogonalLoop=1;jettySize=auto;html=1;entryX=0;entryY=0.5;entryDx=0;entryDy=0;" edge="1" parent="1" source="zlJZLhdvWkpfAHv41WlI-5" target="zlJZLhdvWkpfAHv41WlI-1">
          <mxGeometry relative="1" as="geometry" />
        </mxCell>
        <mxCell id="zlJZLhdvWkpfAHv41WlI-5" value="Client" style="whiteSpace=wrap;html=1;aspect=fixed;" vertex="1" parent="1">
          <mxGeometry x="80" y="350" width="80" height="80" as="geometry" />
        </mxCell>
        <mxCell id="zlJZLhdvWkpfAHv41WlI-21" style="edgeStyle=orthogonalEdgeStyle;rounded=0;orthogonalLoop=1;jettySize=auto;html=1;" edge="1" parent="1" source="zlJZLhdvWkpfAHv41WlI-6" target="zlJZLhdvWkpfAHv41WlI-1">
          <mxGeometry relative="1" as="geometry" />
        </mxCell>
        <mxCell id="zlJZLhdvWkpfAHv41WlI-6" value="Client" style="whiteSpace=wrap;html=1;aspect=fixed;" vertex="1" parent="1">
          <mxGeometry x="80" y="210" width="80" height="80" as="geometry" />
        </mxCell>
        <mxCell id="zlJZLhdvWkpfAHv41WlI-8" value="" style="rounded=0;whiteSpace=wrap;html=1;" vertex="1" parent="1">
          <mxGeometry x="470" y="215" width="120" height="60" as="geometry" />
        </mxCell>
        <mxCell id="zlJZLhdvWkpfAHv41WlI-10" value="" style="rounded=0;whiteSpace=wrap;html=1;" vertex="1" parent="1">
          <mxGeometry x="480" y="225" width="120" height="60" as="geometry" />
        </mxCell>
        <mxCell id="zlJZLhdvWkpfAHv41WlI-11" value="" style="rounded=0;whiteSpace=wrap;html=1;" vertex="1" parent="1">
          <mxGeometry x="490" y="235" width="120" height="60" as="geometry" />
        </mxCell>
        <mxCell id="zlJZLhdvWkpfAHv41WlI-12" value="" style="rounded=0;whiteSpace=wrap;html=1;" vertex="1" parent="1">
          <mxGeometry x="500" y="245" width="120" height="60" as="geometry" />
        </mxCell>
        <mxCell id="zlJZLhdvWkpfAHv41WlI-13" value="" style="rounded=0;whiteSpace=wrap;html=1;" vertex="1" parent="1">
          <mxGeometry x="510" y="255" width="120" height="60" as="geometry" />
        </mxCell>
        <mxCell id="zlJZLhdvWkpfAHv41WlI-14" value="Url Shortner" style="rounded=0;whiteSpace=wrap;html=1;" vertex="1" parent="1">
          <mxGeometry x="520" y="265" width="120" height="60" as="geometry" />
        </mxCell>
        <mxCell id="zlJZLhdvWkpfAHv41WlI-15" value="" style="shape=cylinder3;whiteSpace=wrap;html=1;boundedLbl=1;backgroundOutline=1;size=15;" vertex="1" parent="1">
          <mxGeometry x="770" y="205" width="60" height="80" as="geometry" />
        </mxCell>
        <mxCell id="zlJZLhdvWkpfAHv41WlI-16" style="edgeStyle=orthogonalEdgeStyle;rounded=0;orthogonalLoop=1;jettySize=auto;html=1;entryX=0;entryY=0.5;entryDx=0;entryDy=0;entryPerimeter=0;" edge="1" parent="1" source="zlJZLhdvWkpfAHv41WlI-14" target="zlJZLhdvWkpfAHv41WlI-15">
          <mxGeometry relative="1" as="geometry" />
        </mxCell>
        <mxCell id="zlJZLhdvWkpfAHv41WlI-17" value="" style="shape=cylinder3;whiteSpace=wrap;html=1;boundedLbl=1;backgroundOutline=1;size=15;" vertex="1" parent="1">
          <mxGeometry x="780" y="215" width="60" height="80" as="geometry" />
        </mxCell>
        <mxCell id="zlJZLhdvWkpfAHv41WlI-18" value="DB" style="shape=cylinder3;whiteSpace=wrap;html=1;boundedLbl=1;backgroundOutline=1;size=15;" vertex="1" parent="1">
          <mxGeometry x="790" y="225" width="60" height="80" as="geometry" />
        </mxCell>
        <mxCell id="zlJZLhdvWkpfAHv41WlI-44" value="" style="edgeStyle=orthogonalEdgeStyle;rounded=0;orthogonalLoop=1;jettySize=auto;html=1;" edge="1" parent="1" source="zlJZLhdvWkpfAHv41WlI-25" target="zlJZLhdvWkpfAHv41WlI-26">
          <mxGeometry relative="1" as="geometry" />
        </mxCell>
        <mxCell id="zlJZLhdvWkpfAHv41WlI-25" value="" style="outlineConnect=0;dashed=0;verticalLabelPosition=bottom;verticalAlign=top;align=center;html=1;shape=mxgraph.aws3.cache_node;fillColor=#2E73B8;gradientColor=none;" vertex="1" parent="1">
          <mxGeometry x="510" y="540" width="60" height="63" as="geometry" />
        </mxCell>
        <mxCell id="zlJZLhdvWkpfAHv41WlI-40" style="edgeStyle=orthogonalEdgeStyle;rounded=0;orthogonalLoop=1;jettySize=auto;html=1;" edge="1" parent="1" source="zlJZLhdvWkpfAHv41WlI-26" target="zlJZLhdvWkpfAHv41WlI-25">
          <mxGeometry relative="1" as="geometry" />
        </mxCell>
        <mxCell id="zlJZLhdvWkpfAHv41WlI-26" value="" style="outlineConnect=0;dashed=0;verticalLabelPosition=bottom;verticalAlign=top;align=center;html=1;shape=mxgraph.aws3.cache_node;fillColor=#2E73B8;gradientColor=none;" vertex="1" parent="1">
          <mxGeometry x="650" y="540" width="70" height="63" as="geometry" />
        </mxCell>
        <mxCell id="zlJZLhdvWkpfAHv41WlI-37" style="edgeStyle=orthogonalEdgeStyle;rounded=0;orthogonalLoop=1;jettySize=auto;html=1;entryX=0.75;entryY=1;entryDx=0;entryDy=0;" edge="1" parent="1" source="zlJZLhdvWkpfAHv41WlI-27" target="zlJZLhdvWkpfAHv41WlI-14">
          <mxGeometry relative="1" as="geometry" />
        </mxCell>
        <mxCell id="zlJZLhdvWkpfAHv41WlI-38" style="edgeStyle=orthogonalEdgeStyle;rounded=0;orthogonalLoop=1;jettySize=auto;html=1;" edge="1" parent="1" source="zlJZLhdvWkpfAHv41WlI-27" target="zlJZLhdvWkpfAHv41WlI-25">
          <mxGeometry relative="1" as="geometry" />
        </mxCell>
        <mxCell id="zlJZLhdvWkpfAHv41WlI-39" style="edgeStyle=orthogonalEdgeStyle;rounded=0;orthogonalLoop=1;jettySize=auto;html=1;" edge="1" parent="1" source="zlJZLhdvWkpfAHv41WlI-27" target="zlJZLhdvWkpfAHv41WlI-26">
          <mxGeometry relative="1" as="geometry" />
        </mxCell>
        <mxCell id="zlJZLhdvWkpfAHv41WlI-27" value="" style="outlineConnect=0;dashed=0;verticalLabelPosition=bottom;verticalAlign=top;align=center;html=1;shape=mxgraph.aws3.cache_node;fillColor=#2E73B8;gradientColor=none;" vertex="1" parent="1">
          <mxGeometry x="580" y="460" width="60" height="63" as="geometry" />
        </mxCell>
        <mxCell id="zlJZLhdvWkpfAHv41WlI-42" style="edgeStyle=orthogonalEdgeStyle;rounded=0;orthogonalLoop=1;jettySize=auto;html=1;entryX=1;entryY=0.5;entryDx=0;entryDy=0;entryPerimeter=0;" edge="1" parent="1" source="zlJZLhdvWkpfAHv41WlI-26" target="zlJZLhdvWkpfAHv41WlI-27">
          <mxGeometry relative="1" as="geometry">
            <Array as="points">
              <mxPoint x="685" y="492" />
            </Array>
          </mxGeometry>
        </mxCell>
        <mxCell id="zlJZLhdvWkpfAHv41WlI-43" style="edgeStyle=orthogonalEdgeStyle;rounded=0;orthogonalLoop=1;jettySize=auto;html=1;entryX=0;entryY=0.5;entryDx=0;entryDy=0;entryPerimeter=0;" edge="1" parent="1" source="zlJZLhdvWkpfAHv41WlI-25" target="zlJZLhdvWkpfAHv41WlI-27">
          <mxGeometry relative="1" as="geometry">
            <Array as="points">
              <mxPoint x="540" y="492" />
            </Array>
          </mxGeometry>
        </mxCell>
        <mxCell id="zlJZLhdvWkpfAHv41WlI-46" style="edgeStyle=orthogonalEdgeStyle;rounded=0;orthogonalLoop=1;jettySize=auto;html=1;entryX=0.05;entryY=0.05;entryDx=0;entryDy=0;entryPerimeter=0;" edge="1" parent="1" source="zlJZLhdvWkpfAHv41WlI-14" target="zlJZLhdvWkpfAHv41WlI-27">
          <mxGeometry relative="1" as="geometry">
            <Array as="points">
              <mxPoint x="583" y="370" />
              <mxPoint x="583" y="370" />
            </Array>
          </mxGeometry>
        </mxCell>
      </root>
    </mxGraphModel>
  </diagram>
  <diagram id="ih3NLSmdSqk8ad1UzJlT" name="workflow-writepath">
    <mxGraphModel dx="1328" dy="590" grid="1" gridSize="10" guides="1" tooltips="1" connect="1" arrows="1" fold="1" page="1" pageScale="1" pageWidth="850" pageHeight="1100" math="0" shadow="0">
      <root>
        <mxCell id="0" />
        <mxCell id="1" parent="0" />
        <mxCell id="GwYWCGy8X_pPsM5VoCvt-3" value="" style="edgeStyle=orthogonalEdgeStyle;rounded=0;orthogonalLoop=1;jettySize=auto;html=1;" edge="1" parent="1" source="GwYWCGy8X_pPsM5VoCvt-1" target="GwYWCGy8X_pPsM5VoCvt-2">
          <mxGeometry relative="1" as="geometry" />
        </mxCell>
        <mxCell id="GwYWCGy8X_pPsM5VoCvt-4" value="POST: /url/new" style="edgeLabel;html=1;align=center;verticalAlign=middle;resizable=0;points=[];" vertex="1" connectable="0" parent="GwYWCGy8X_pPsM5VoCvt-3">
          <mxGeometry y="1" relative="1" as="geometry">
            <mxPoint as="offset" />
          </mxGeometry>
        </mxCell>
        <mxCell id="GwYWCGy8X_pPsM5VoCvt-1" value="Client" style="rounded=0;whiteSpace=wrap;html=1;" vertex="1" parent="1">
          <mxGeometry x="70" y="240" width="50" height="50" as="geometry" />
        </mxCell>
        <mxCell id="GwYWCGy8X_pPsM5VoCvt-2" value="LB" style="triangle;whiteSpace=wrap;html=1;" vertex="1" parent="1">
          <mxGeometry x="200" y="245" width="30" height="40" as="geometry" />
        </mxCell>
        <mxCell id="GwYWCGy8X_pPsM5VoCvt-5" value="" style="whiteSpace=wrap;html=1;aspect=fixed;" vertex="1" parent="1">
          <mxGeometry x="300" y="190" width="400" height="400" as="geometry" />
        </mxCell>
        <mxCell id="GwYWCGy8X_pPsM5VoCvt-7" style="edgeStyle=orthogonalEdgeStyle;rounded=0;orthogonalLoop=1;jettySize=auto;html=1;entryX=0;entryY=0.5;entryDx=0;entryDy=0;" edge="1" parent="1" source="GwYWCGy8X_pPsM5VoCvt-39" target="GwYWCGy8X_pPsM5VoCvt-8">
          <mxGeometry relative="1" as="geometry">
            <mxPoint x="340" y="265" as="targetPoint" />
          </mxGeometry>
        </mxCell>
        <mxCell id="GwYWCGy8X_pPsM5VoCvt-10" style="edgeStyle=orthogonalEdgeStyle;rounded=0;orthogonalLoop=1;jettySize=auto;html=1;entryX=0;entryY=0.5;entryDx=0;entryDy=0;" edge="1" parent="1" source="GwYWCGy8X_pPsM5VoCvt-8" target="GwYWCGy8X_pPsM5VoCvt-9">
          <mxGeometry relative="1" as="geometry" />
        </mxCell>
        <mxCell id="GwYWCGy8X_pPsM5VoCvt-17" value="yes" style="edgeLabel;html=1;align=center;verticalAlign=middle;resizable=0;points=[];" vertex="1" connectable="0" parent="GwYWCGy8X_pPsM5VoCvt-10">
          <mxGeometry x="-0.25" y="-1" relative="1" as="geometry">
            <mxPoint as="offset" />
          </mxGeometry>
        </mxCell>
        <mxCell id="GwYWCGy8X_pPsM5VoCvt-20" value="" style="edgeStyle=orthogonalEdgeStyle;rounded=0;orthogonalLoop=1;jettySize=auto;html=1;" edge="1" parent="1" source="GwYWCGy8X_pPsM5VoCvt-8" target="GwYWCGy8X_pPsM5VoCvt-19">
          <mxGeometry relative="1" as="geometry" />
        </mxCell>
        <mxCell id="GwYWCGy8X_pPsM5VoCvt-22" value="No" style="edgeLabel;html=1;align=center;verticalAlign=middle;resizable=0;points=[];" vertex="1" connectable="0" parent="GwYWCGy8X_pPsM5VoCvt-20">
          <mxGeometry x="-0.025" y="-1" relative="1" as="geometry">
            <mxPoint as="offset" />
          </mxGeometry>
        </mxCell>
        <mxCell id="GwYWCGy8X_pPsM5VoCvt-8" value="Is Custom Link" style="rhombus;whiteSpace=wrap;html=1;" vertex="1" parent="1">
          <mxGeometry x="330" y="225" width="90" height="80" as="geometry" />
        </mxCell>
        <mxCell id="GwYWCGy8X_pPsM5VoCvt-16" style="edgeStyle=orthogonalEdgeStyle;rounded=0;orthogonalLoop=1;jettySize=auto;html=1;" edge="1" parent="1" source="GwYWCGy8X_pPsM5VoCvt-9" target="GwYWCGy8X_pPsM5VoCvt-13">
          <mxGeometry relative="1" as="geometry">
            <Array as="points">
              <mxPoint x="510" y="170" />
              <mxPoint x="460" y="170" />
            </Array>
          </mxGeometry>
        </mxCell>
        <mxCell id="GwYWCGy8X_pPsM5VoCvt-23" style="edgeStyle=orthogonalEdgeStyle;rounded=0;orthogonalLoop=1;jettySize=auto;html=1;entryX=0.358;entryY=0.017;entryDx=0;entryDy=0;entryPerimeter=0;" edge="1" parent="1" source="GwYWCGy8X_pPsM5VoCvt-9" target="GwYWCGy8X_pPsM5VoCvt-25">
          <mxGeometry relative="1" as="geometry">
            <Array as="points">
              <mxPoint x="508" y="386" />
              <mxPoint x="508" y="386" />
            </Array>
          </mxGeometry>
        </mxCell>
        <mxCell id="GwYWCGy8X_pPsM5VoCvt-24" value="return 401" style="edgeLabel;html=1;align=center;verticalAlign=middle;resizable=0;points=[];" vertex="1" connectable="0" parent="GwYWCGy8X_pPsM5VoCvt-23">
          <mxGeometry x="0.3049" y="1" relative="1" as="geometry">
            <mxPoint as="offset" />
          </mxGeometry>
        </mxCell>
        <mxCell id="GwYWCGy8X_pPsM5VoCvt-37" style="edgeStyle=orthogonalEdgeStyle;rounded=0;orthogonalLoop=1;jettySize=auto;html=1;entryX=0.5;entryY=1;entryDx=0;entryDy=0;" edge="1" parent="1" source="GwYWCGy8X_pPsM5VoCvt-9" target="GwYWCGy8X_pPsM5VoCvt-1">
          <mxGeometry relative="1" as="geometry">
            <Array as="points">
              <mxPoint x="510" y="310" />
              <mxPoint x="95" y="310" />
            </Array>
          </mxGeometry>
        </mxCell>
        <mxCell id="GwYWCGy8X_pPsM5VoCvt-38" value="401 Unauthorized" style="edgeLabel;html=1;align=center;verticalAlign=middle;resizable=0;points=[];" vertex="1" connectable="0" parent="GwYWCGy8X_pPsM5VoCvt-37">
          <mxGeometry x="0.1604" y="1" relative="1" as="geometry">
            <mxPoint as="offset" />
          </mxGeometry>
        </mxCell>
        <mxCell id="GwYWCGy8X_pPsM5VoCvt-9" value="&lt;div&gt;Check if encoded text already exist&lt;br&gt;&lt;/div&gt;" style="rounded=0;whiteSpace=wrap;html=1;" vertex="1" parent="1">
          <mxGeometry x="460" y="240" width="100" height="50" as="geometry" />
        </mxCell>
        <mxCell id="GwYWCGy8X_pPsM5VoCvt-11" value="" style="shape=cylinder3;whiteSpace=wrap;html=1;boundedLbl=1;backgroundOutline=1;size=15;" vertex="1" parent="1">
          <mxGeometry x="410" y="40" width="60" height="80" as="geometry" />
        </mxCell>
        <mxCell id="GwYWCGy8X_pPsM5VoCvt-12" value="" style="shape=cylinder3;whiteSpace=wrap;html=1;boundedLbl=1;backgroundOutline=1;size=15;" vertex="1" parent="1">
          <mxGeometry x="420" y="50" width="60" height="80" as="geometry" />
        </mxCell>
        <mxCell id="GwYWCGy8X_pPsM5VoCvt-15" style="edgeStyle=orthogonalEdgeStyle;rounded=0;orthogonalLoop=1;jettySize=auto;html=1;" edge="1" parent="1" source="GwYWCGy8X_pPsM5VoCvt-13" target="GwYWCGy8X_pPsM5VoCvt-9">
          <mxGeometry relative="1" as="geometry">
            <Array as="points">
              <mxPoint x="460" y="170" />
              <mxPoint x="510" y="170" />
            </Array>
          </mxGeometry>
        </mxCell>
        <mxCell id="GwYWCGy8X_pPsM5VoCvt-13" value="DB" style="shape=cylinder3;whiteSpace=wrap;html=1;boundedLbl=1;backgroundOutline=1;size=15;" vertex="1" parent="1">
          <mxGeometry x="430" y="60" width="60" height="80" as="geometry" />
        </mxCell>
        <mxCell id="GwYWCGy8X_pPsM5VoCvt-26" value="" style="edgeStyle=orthogonalEdgeStyle;rounded=0;orthogonalLoop=1;jettySize=auto;html=1;" edge="1" parent="1" source="GwYWCGy8X_pPsM5VoCvt-19" target="GwYWCGy8X_pPsM5VoCvt-25">
          <mxGeometry relative="1" as="geometry" />
        </mxCell>
        <mxCell id="GwYWCGy8X_pPsM5VoCvt-19" value="Create New encoded text" style="rounded=0;whiteSpace=wrap;html=1;" vertex="1" parent="1">
          <mxGeometry x="315" y="385" width="120" height="60" as="geometry" />
        </mxCell>
        <mxCell id="GwYWCGy8X_pPsM5VoCvt-35" style="edgeStyle=orthogonalEdgeStyle;rounded=0;orthogonalLoop=1;jettySize=auto;html=1;entryX=0.25;entryY=1;entryDx=0;entryDy=0;" edge="1" parent="1" source="GwYWCGy8X_pPsM5VoCvt-25" target="GwYWCGy8X_pPsM5VoCvt-1">
          <mxGeometry relative="1" as="geometry">
            <Array as="points">
              <mxPoint x="525" y="540" />
              <mxPoint x="83" y="540" />
            </Array>
          </mxGeometry>
        </mxCell>
        <mxCell id="GwYWCGy8X_pPsM5VoCvt-36" value="return 200" style="edgeLabel;html=1;align=center;verticalAlign=middle;resizable=0;points=[];" vertex="1" connectable="0" parent="GwYWCGy8X_pPsM5VoCvt-35">
          <mxGeometry x="-0.1086" y="1" relative="1" as="geometry">
            <mxPoint as="offset" />
          </mxGeometry>
        </mxCell>
        <mxCell id="GwYWCGy8X_pPsM5VoCvt-25" value="save the link in db" style="rounded=0;whiteSpace=wrap;html=1;" vertex="1" parent="1">
          <mxGeometry x="465" y="385" width="120" height="60" as="geometry" />
        </mxCell>
        <mxCell id="GwYWCGy8X_pPsM5VoCvt-27" value="" style="shape=cylinder3;whiteSpace=wrap;html=1;boundedLbl=1;backgroundOutline=1;size=15;" vertex="1" parent="1">
          <mxGeometry x="420" y="50" width="60" height="80" as="geometry" />
        </mxCell>
        <mxCell id="GwYWCGy8X_pPsM5VoCvt-28" value="" style="shape=cylinder3;whiteSpace=wrap;html=1;boundedLbl=1;backgroundOutline=1;size=15;" vertex="1" parent="1">
          <mxGeometry x="430" y="60" width="60" height="80" as="geometry" />
        </mxCell>
        <mxCell id="GwYWCGy8X_pPsM5VoCvt-29" value="DB" style="shape=cylinder3;whiteSpace=wrap;html=1;boundedLbl=1;backgroundOutline=1;size=15;" vertex="1" parent="1">
          <mxGeometry x="440" y="70" width="60" height="80" as="geometry" />
        </mxCell>
        <mxCell id="GwYWCGy8X_pPsM5VoCvt-30" value="" style="shape=cylinder3;whiteSpace=wrap;html=1;boundedLbl=1;backgroundOutline=1;size=15;" vertex="1" parent="1">
          <mxGeometry x="790" y="345" width="60" height="80" as="geometry" />
        </mxCell>
        <mxCell id="GwYWCGy8X_pPsM5VoCvt-31" value="" style="shape=cylinder3;whiteSpace=wrap;html=1;boundedLbl=1;backgroundOutline=1;size=15;" vertex="1" parent="1">
          <mxGeometry x="800" y="355" width="60" height="80" as="geometry" />
        </mxCell>
        <mxCell id="GwYWCGy8X_pPsM5VoCvt-32" value="DB" style="shape=cylinder3;whiteSpace=wrap;html=1;boundedLbl=1;backgroundOutline=1;size=15;" vertex="1" parent="1">
          <mxGeometry x="810" y="365" width="60" height="80" as="geometry" />
        </mxCell>
        <mxCell id="GwYWCGy8X_pPsM5VoCvt-33" style="edgeStyle=orthogonalEdgeStyle;rounded=0;orthogonalLoop=1;jettySize=auto;html=1;entryX=0;entryY=0;entryDx=0;entryDy=52.5;entryPerimeter=0;" edge="1" parent="1" source="GwYWCGy8X_pPsM5VoCvt-25" target="GwYWCGy8X_pPsM5VoCvt-31">
          <mxGeometry relative="1" as="geometry">
            <Array as="points">
              <mxPoint x="693" y="408" />
            </Array>
          </mxGeometry>
        </mxCell>
        <mxCell id="GwYWCGy8X_pPsM5VoCvt-34" style="edgeStyle=orthogonalEdgeStyle;rounded=0;orthogonalLoop=1;jettySize=auto;html=1;entryX=1;entryY=0.25;entryDx=0;entryDy=0;" edge="1" parent="1" source="GwYWCGy8X_pPsM5VoCvt-32" target="GwYWCGy8X_pPsM5VoCvt-25">
          <mxGeometry relative="1" as="geometry">
            <Array as="points">
              <mxPoint x="698" y="405" />
              <mxPoint x="698" y="410" />
              <mxPoint x="585" y="410" />
            </Array>
          </mxGeometry>
        </mxCell>
        <mxCell id="GwYWCGy8X_pPsM5VoCvt-40" value="" style="edgeStyle=orthogonalEdgeStyle;rounded=0;orthogonalLoop=1;jettySize=auto;html=1;entryX=0;entryY=0.5;entryDx=0;entryDy=0;" edge="1" parent="1" source="GwYWCGy8X_pPsM5VoCvt-2" target="GwYWCGy8X_pPsM5VoCvt-39">
          <mxGeometry relative="1" as="geometry">
            <mxPoint x="230" y="265" as="sourcePoint" />
            <mxPoint x="330" y="265" as="targetPoint" />
          </mxGeometry>
        </mxCell>
        <mxCell id="GwYWCGy8X_pPsM5VoCvt-39" value="Auth" style="triangle;whiteSpace=wrap;html=1;" vertex="1" parent="1">
          <mxGeometry x="250" y="245" width="30" height="40" as="geometry" />
        </mxCell>
      </root>
    </mxGraphModel>
  </diagram>
  <diagram id="e_092k0cI8QaiYSYY1O9" name="workflow-readpath">
    <mxGraphModel dx="1328" dy="590" grid="1" gridSize="10" guides="1" tooltips="1" connect="1" arrows="1" fold="1" page="1" pageScale="1" pageWidth="850" pageHeight="1100" math="0" shadow="0">
      <root>
        <mxCell id="0" />
        <mxCell id="1" parent="0" />
        <mxCell id="L3_5KBT079Dbn_zGW9gc-1" value="LB" style="triangle;whiteSpace=wrap;html=1;" vertex="1" parent="1">
          <mxGeometry x="200" y="120" width="60" height="80" as="geometry" />
        </mxCell>
        <mxCell id="L3_5KBT079Dbn_zGW9gc-4" style="edgeStyle=orthogonalEdgeStyle;rounded=0;orthogonalLoop=1;jettySize=auto;html=1;" edge="1" parent="1" source="L3_5KBT079Dbn_zGW9gc-3" target="L3_5KBT079Dbn_zGW9gc-1">
          <mxGeometry relative="1" as="geometry" />
        </mxCell>
        <mxCell id="L3_5KBT079Dbn_zGW9gc-3" value="Users" style="rounded=0;whiteSpace=wrap;html=1;" vertex="1" parent="1">
          <mxGeometry x="10" y="130" width="120" height="60" as="geometry" />
        </mxCell>
        <mxCell id="L3_5KBT079Dbn_zGW9gc-5" value="" style="whiteSpace=wrap;html=1;aspect=fixed;" vertex="1" parent="1">
          <mxGeometry x="290" y="90" width="390" height="390" as="geometry" />
        </mxCell>
        <mxCell id="L3_5KBT079Dbn_zGW9gc-12" value="" style="edgeStyle=orthogonalEdgeStyle;rounded=0;orthogonalLoop=1;jettySize=auto;html=1;" edge="1" parent="1" source="L3_5KBT079Dbn_zGW9gc-6" target="L3_5KBT079Dbn_zGW9gc-11">
          <mxGeometry relative="1" as="geometry" />
        </mxCell>
        <mxCell id="L3_5KBT079Dbn_zGW9gc-6" value="Check if url is in cache" style="rounded=0;whiteSpace=wrap;html=1;" vertex="1" parent="1">
          <mxGeometry x="330" y="130" width="120" height="60" as="geometry" />
        </mxCell>
        <mxCell id="L3_5KBT079Dbn_zGW9gc-7" style="edgeStyle=orthogonalEdgeStyle;rounded=0;orthogonalLoop=1;jettySize=auto;html=1;" edge="1" parent="1" source="L3_5KBT079Dbn_zGW9gc-1" target="L3_5KBT079Dbn_zGW9gc-6">
          <mxGeometry relative="1" as="geometry" />
        </mxCell>
        <mxCell id="L3_5KBT079Dbn_zGW9gc-9" style="edgeStyle=orthogonalEdgeStyle;rounded=0;orthogonalLoop=1;jettySize=auto;html=1;" edge="1" parent="1" source="L3_5KBT079Dbn_zGW9gc-8" target="L3_5KBT079Dbn_zGW9gc-6">
          <mxGeometry relative="1" as="geometry">
            <Array as="points">
              <mxPoint x="395" y="110" />
              <mxPoint x="395" y="110" />
            </Array>
          </mxGeometry>
        </mxCell>
        <mxCell id="L3_5KBT079Dbn_zGW9gc-8" value="" style="outlineConnect=0;dashed=0;verticalLabelPosition=bottom;verticalAlign=top;align=center;html=1;shape=mxgraph.aws3.cache_node;fillColor=#2E73B8;gradientColor=none;" vertex="1" parent="1">
          <mxGeometry x="365" width="60" height="63" as="geometry" />
        </mxCell>
        <mxCell id="L3_5KBT079Dbn_zGW9gc-10" style="edgeStyle=orthogonalEdgeStyle;rounded=0;orthogonalLoop=1;jettySize=auto;html=1;entryX=0.5;entryY=1;entryDx=0;entryDy=0;entryPerimeter=0;" edge="1" parent="1" source="L3_5KBT079Dbn_zGW9gc-6" target="L3_5KBT079Dbn_zGW9gc-8">
          <mxGeometry relative="1" as="geometry">
            <Array as="points">
              <mxPoint x="395" y="110" />
              <mxPoint x="395" y="110" />
            </Array>
          </mxGeometry>
        </mxCell>
        <mxCell id="L3_5KBT079Dbn_zGW9gc-22" style="edgeStyle=orthogonalEdgeStyle;rounded=0;orthogonalLoop=1;jettySize=auto;html=1;exitX=1;exitY=0.5;exitDx=0;exitDy=0;" edge="1" parent="1" source="L3_5KBT079Dbn_zGW9gc-11" target="L3_5KBT079Dbn_zGW9gc-16">
          <mxGeometry relative="1" as="geometry">
            <Array as="points">
              <mxPoint x="600" y="160" />
            </Array>
          </mxGeometry>
        </mxCell>
        <mxCell id="L3_5KBT079Dbn_zGW9gc-27" value="yes" style="edgeLabel;html=1;align=center;verticalAlign=middle;resizable=0;points=[];" vertex="1" connectable="0" parent="L3_5KBT079Dbn_zGW9gc-22">
          <mxGeometry x="0.008" y="-1" relative="1" as="geometry">
            <mxPoint as="offset" />
          </mxGeometry>
        </mxCell>
        <mxCell id="L3_5KBT079Dbn_zGW9gc-24" style="edgeStyle=orthogonalEdgeStyle;rounded=0;orthogonalLoop=1;jettySize=auto;html=1;entryX=0.5;entryY=0;entryDx=0;entryDy=0;" edge="1" parent="1" source="L3_5KBT079Dbn_zGW9gc-11" target="L3_5KBT079Dbn_zGW9gc-20">
          <mxGeometry relative="1" as="geometry">
            <Array as="points">
              <mxPoint x="540" y="220" />
              <mxPoint x="390" y="220" />
            </Array>
          </mxGeometry>
        </mxCell>
        <mxCell id="L3_5KBT079Dbn_zGW9gc-25" value="no" style="edgeLabel;html=1;align=center;verticalAlign=middle;resizable=0;points=[];" vertex="1" connectable="0" parent="L3_5KBT079Dbn_zGW9gc-24">
          <mxGeometry x="-0.0634" y="1" relative="1" as="geometry">
            <mxPoint as="offset" />
          </mxGeometry>
        </mxCell>
        <mxCell id="L3_5KBT079Dbn_zGW9gc-11" value="Object Found" style="rhombus;whiteSpace=wrap;html=1;" vertex="1" parent="1">
          <mxGeometry x="500" y="120" width="80" height="80" as="geometry" />
        </mxCell>
        <mxCell id="L3_5KBT079Dbn_zGW9gc-18" style="edgeStyle=orthogonalEdgeStyle;rounded=0;orthogonalLoop=1;jettySize=auto;html=1;" edge="1" parent="1" source="L3_5KBT079Dbn_zGW9gc-16" target="L3_5KBT079Dbn_zGW9gc-3">
          <mxGeometry relative="1" as="geometry" />
        </mxCell>
        <mxCell id="L3_5KBT079Dbn_zGW9gc-19" value="&lt;div&gt;{&lt;/div&gt;&lt;div&gt;status: 302&lt;/div&gt;&lt;div&gt;url: &amp;lt;url&amp;gt;&lt;/div&gt;&lt;div&gt;}&lt;br&gt;&lt;/div&gt;" style="edgeLabel;html=1;align=center;verticalAlign=middle;resizable=0;points=[];" vertex="1" connectable="0" parent="L3_5KBT079Dbn_zGW9gc-18">
          <mxGeometry x="-0.3426" y="4" relative="1" as="geometry">
            <mxPoint as="offset" />
          </mxGeometry>
        </mxCell>
        <mxCell id="L3_5KBT079Dbn_zGW9gc-16" value="prepare the response" style="rounded=0;whiteSpace=wrap;html=1;" vertex="1" parent="1">
          <mxGeometry x="480" y="390" width="120" height="60" as="geometry" />
        </mxCell>
        <mxCell id="L3_5KBT079Dbn_zGW9gc-29" style="edgeStyle=orthogonalEdgeStyle;rounded=0;orthogonalLoop=1;jettySize=auto;html=1;" edge="1" parent="1" source="L3_5KBT079Dbn_zGW9gc-20" target="L3_5KBT079Dbn_zGW9gc-28">
          <mxGeometry relative="1" as="geometry" />
        </mxCell>
        <mxCell id="L3_5KBT079Dbn_zGW9gc-35" style="edgeStyle=orthogonalEdgeStyle;rounded=0;orthogonalLoop=1;jettySize=auto;html=1;" edge="1" parent="1" source="L3_5KBT079Dbn_zGW9gc-20" target="L3_5KBT079Dbn_zGW9gc-33">
          <mxGeometry relative="1" as="geometry" />
        </mxCell>
        <mxCell id="L3_5KBT079Dbn_zGW9gc-20" value="Get url from db" style="rounded=0;whiteSpace=wrap;html=1;" vertex="1" parent="1">
          <mxGeometry x="330" y="240" width="120" height="60" as="geometry" />
        </mxCell>
        <mxCell id="L3_5KBT079Dbn_zGW9gc-37" style="edgeStyle=orthogonalEdgeStyle;rounded=0;orthogonalLoop=1;jettySize=auto;html=1;" edge="1" parent="1" source="L3_5KBT079Dbn_zGW9gc-28" target="L3_5KBT079Dbn_zGW9gc-36">
          <mxGeometry relative="1" as="geometry" />
        </mxCell>
        <mxCell id="L3_5KBT079Dbn_zGW9gc-28" value="save to cache" style="rounded=0;whiteSpace=wrap;html=1;" vertex="1" parent="1">
          <mxGeometry x="330" y="330" width="120" height="60" as="geometry" />
        </mxCell>
        <mxCell id="L3_5KBT079Dbn_zGW9gc-30" style="edgeStyle=orthogonalEdgeStyle;rounded=0;orthogonalLoop=1;jettySize=auto;html=1;entryX=0.567;entryY=-0.017;entryDx=0;entryDy=0;entryPerimeter=0;" edge="1" parent="1" source="L3_5KBT079Dbn_zGW9gc-28" target="L3_5KBT079Dbn_zGW9gc-16">
          <mxGeometry relative="1" as="geometry" />
        </mxCell>
        <mxCell id="L3_5KBT079Dbn_zGW9gc-31" value="" style="shape=cylinder3;whiteSpace=wrap;html=1;boundedLbl=1;backgroundOutline=1;size=15;" vertex="1" parent="1">
          <mxGeometry x="160" y="200" width="60" height="80" as="geometry" />
        </mxCell>
        <mxCell id="L3_5KBT079Dbn_zGW9gc-32" value="" style="shape=cylinder3;whiteSpace=wrap;html=1;boundedLbl=1;backgroundOutline=1;size=15;" vertex="1" parent="1">
          <mxGeometry x="170" y="210" width="60" height="80" as="geometry" />
        </mxCell>
        <mxCell id="L3_5KBT079Dbn_zGW9gc-34" style="edgeStyle=orthogonalEdgeStyle;rounded=0;orthogonalLoop=1;jettySize=auto;html=1;" edge="1" parent="1" source="L3_5KBT079Dbn_zGW9gc-33" target="L3_5KBT079Dbn_zGW9gc-20">
          <mxGeometry relative="1" as="geometry" />
        </mxCell>
        <mxCell id="L3_5KBT079Dbn_zGW9gc-33" value="DB" style="shape=cylinder3;whiteSpace=wrap;html=1;boundedLbl=1;backgroundOutline=1;size=15;" vertex="1" parent="1">
          <mxGeometry x="180" y="230" width="60" height="80" as="geometry" />
        </mxCell>
        <mxCell id="L3_5KBT079Dbn_zGW9gc-36" value="" style="outlineConnect=0;dashed=0;verticalLabelPosition=bottom;verticalAlign=top;align=center;html=1;shape=mxgraph.aws3.cache_node;fillColor=#2E73B8;gradientColor=none;" vertex="1" parent="1">
          <mxGeometry x="180" y="328.5" width="60" height="63" as="geometry" />
        </mxCell>
      </root>
    </mxGraphModel>
  </diagram>
</mxfile>
